<svg width="1752" height="882" viewBox="0 0 1752 882" fill="none" xmlns="http://www.w3.org/2000/svg">
<path fill-rule="evenodd" clip-rule="evenodd" d="M1750.47 110.964C1763.98 186.203 1556.45 150.861 1537.72 224.271C1519 297.681 1353.33 516.805 1305.37 572.798C1257.41 628.791 1111.25 682.347 1040.03 708.097C968.815 733.847 789.692 901.944 713.79 879.252C637.888 856.561 129.847 874.409 80.9875 818.535C32.1282 762.661 22.7972 534.895 1.14672 470.487C-20.5038 406.078 271.266 572.798 302.342 572.798C436.095 572.798 473.025 150.395 655.172 58.3743C720.494 25.3733 892.781 142.995 863.14 254.869C833.499 366.742 1212.31 -16.0697 1280.51 0.525488C1348.71 17.1207 1480.6 24.9108 1537.72 69.8485C1594.85 114.786 1736.97 35.7253 1750.47 110.964Z" fill="#27187E" fill-opacity="0.11"/>
</svg>
